HIERARCHY
ROOT joint_Root
{
	OFFSET 0.0 0.0 0.0
	CHANNELS 6 Xposition Yposition Zposition Zrotation Xrotation Yrotation 
	JOINT Hips
	{
		OFFSET -0.726466 93.3139 -2.00062
		CHANNELS 6 Xposition Yposition Zposition Zrotation Xrotation Yrotation 
		JOINT Spine
		{
			OFFSET 15.7357 0.0 0.0
			CHANNELS 6 Xposition Yposition Zposition Zrotation Xrotation Yrotation 
			JOINT Chest
			{
				OFFSET 8.98455 -0.406207 0.0
				CHANNELS 6 Xposition Yposition Zposition Zrotation Xrotation Yrotation 
				JOINT Neck
				{
					OFFSET 16.3773 0.0 0.0
					CHANNELS 6 Xposition Yposition Zposition Zrotation Xrotation Yrotation 
					JOINT Head
					{
						OFFSET 6.45672 0.0 0.0
						CHANNELS 6 Xposition Yposition Zposition Zrotation Xrotation Yrotation 
						End Site
						{
							OFFSET 0.0 0.0 0.0
						}
					}
				}
				JOINT Shoulder_L
				{
					OFFSET 12.9942 -0.242716 4.98039
					CHANNELS 6 Xposition Yposition Zposition Zrotation Xrotation Yrotation 
					JOINT UpperArm_L
					{
						OFFSET 5.34809 0.0 0.0
						CHANNELS 6 Xposition Yposition Zposition Zrotation Xrotation Yrotation 
						JOINT LowerArm_L
						{
							OFFSET 24.3286 1.87007e-05 0.0
							CHANNELS 6 Xposition Yposition Zposition Zrotation Xrotation Yrotation 
							JOINT Hand_L
							{
								OFFSET 22.2916 0.0 0.0
								CHANNELS 6 Xposition Yposition Zposition Zrotation Xrotation Yrotation 
								End Site
								{
									OFFSET 0.0 0.0 0.0
								}
							}
						}
					}
				}
				JOINT Shoulder_R
				{
					OFFSET 12.9945 -0.242716 -4.98039
					CHANNELS 6 Xposition Yposition Zposition Zrotation Xrotation Yrotation 
					JOINT UpperArm_R
					{
						OFFSET -5.34813 0.0 0.0
						CHANNELS 6 Xposition Yposition Zposition Zrotation Xrotation Yrotation 
						JOINT LowerArm_R
						{
							OFFSET -24.3289 0.000322201 0.0
							CHANNELS 6 Xposition Yposition Zposition Zrotation Xrotation Yrotation 
							JOINT Hand_R
							{
								OFFSET -22.2915 -0.000108084 0.0
								CHANNELS 6 Xposition Yposition Zposition Zrotation Xrotation Yrotation 
								End Site
								{
									OFFSET 0.0 0.0 0.0
								}
							}
						}
					}
				}
			}
		}
		JOINT UpperLeg_L
		{
			OFFSET -2.19248 -6.46944 0.0
			CHANNELS 6 Xposition Yposition Zposition Zrotation Xrotation Yrotation 
			JOINT LowerLeg_L
			{
				OFFSET 39.0811 0.0 -1.23785e-05
				CHANNELS 6 Xposition Yposition Zposition Zrotation Xrotation Yrotation 
				JOINT Foot_L
				{
					OFFSET 40.9854 0.0 -1.26872e-05
					CHANNELS 6 Xposition Yposition Zposition Zrotation Xrotation Yrotation 
					JOINT Toes_L
					{
						OFFSET 11.7543 0.0 0.0
						CHANNELS 6 Xposition Yposition Zposition Zrotation Xrotation Yrotation 
						End Site
						{
							OFFSET 0.0 0.0 0.0
						}
					}
				}
			}
		}
		JOINT UpperLeg_R
		{
			OFFSET -2.19251 6.46944 0.0
			CHANNELS 6 Xposition Yposition Zposition Zrotation Xrotation Yrotation 
			JOINT LowerLeg_R
			{
				OFFSET -39.0811 -0.00228153 -0.0401928
				CHANNELS 6 Xposition Yposition Zposition Zrotation Xrotation Yrotation 
				JOINT Foot_R
				{
					OFFSET -40.9854 0.0 0.0
					CHANNELS 6 Xposition Yposition Zposition Zrotation Xrotation Yrotation 
					JOINT Toes_R
					{
						OFFSET -11.7543 0.0 0.0
						CHANNELS 6 Xposition Yposition Zposition Zrotation Xrotation Yrotation 
						End Site
						{
							OFFSET 0.0 0.0 0.0
						}
					}
				}
			}
		}
	}
}
MOTION
Frames:	6
Frame Time:	0.0333333
0.000000 0.000000 0.000000 0.000000 0.000000 -0.000000 79.370500 88.930700 186.571000 -77.615700 62.799000 171.982000 15.735700 0.000005 -0.000001 116.679000 83.535000 -115.751000 8.984550 -0.406207 -0.000000 3.757330 5.765220 1.666350 16.377300 -0.000001 -0.000001 2.506540 10.251600 -1.988050 6.456720 -0.000001 -0.000000 2.797290 12.559400 -5.333480 12.994200 -0.242716 4.980390 -88.914400 -2.492210 -66.453800 5.348090 -0.000007 -0.000001 -75.609000 14.010600 1.010270 24.328600 0.000019 0.000005 1.260180 7.115910 -10.069400 22.291600 -0.000001 0.000005 11.810200 5.358110 -1.621330 12.994500 -0.242716 -4.980390 88.762000 5.053000 -76.214000 -5.348130 -0.000001 -0.000004 -53.559500 23.140700 -33.100400 -24.328900 0.000322 -0.000009 0.980104 2.207750 -23.968600 -22.291500 -0.000108 -0.000004 14.964400 5.405640 -3.121800 -2.192480 -6.469440 -0.000000 171.585000 -17.602100 -22.447000 39.081100 -0.000007 -0.000012 -0.000044 0.000346 7.055000 40.985400 -0.000006 -0.000013 18.501400 -14.408200 -49.361400 11.754300 -0.000000 0.000003 -0.006712 -0.077178 -19.718400 -2.192510 6.469440 -0.000001 178.743000 22.074400 -173.433000 -39.081100 -0.002282 -0.040193 -0.015911 0.032930 30.260400 -40.985400 0.000008 0.000006 1.366120 0.462813 -69.917000 -11.754300 -0.000006 -0.000006 -3.154170 -3.141040 -26.064000
0.000000 0.000000 0.000000 0.000000 0.000000 -0.000000 82.805100 88.665900 184.423000 -79.885900 63.339300 174.063000 15.735700 0.000005 -0.000001 116.251000 83.708800 -116.017000 8.984550 -0.406207 -0.000000 3.521500 5.549690 0.296303 16.377300 -0.000001 -0.000001 2.276140 10.535800 -1.778460 6.456720 -0.000001 -0.000000 2.285800 12.929100 -4.824480 12.994200 -0.242716 4.980390 -89.104200 -2.063870 -66.531600 5.348090 -0.000007 -0.000001 -76.150200 14.729400 1.174230 24.328600 0.000019 0.000005 1.419040 8.228800 -9.818820 22.291600 -0.000001 0.000005 9.729480 5.342480 -1.151140 12.994500 -0.242716 -4.980390 88.678100 5.439420 -76.318100 -5.348130 -0.000001 -0.000004 -55.152100 25.503400 -30.972400 -24.328900 0.000322 -0.000009 1.045770 2.375030 -23.795100 -22.291500 -0.000108 -0.000004 14.303300 5.410770 -3.290990 -2.192480 -6.469440 -0.000000 171.562000 -17.306300 -25.343300 39.081100 -0.000007 -0.000012 0.129452 -0.457464 15.800500 40.985400 -0.000006 -0.000013 16.752400 -16.255900 -44.844600 11.754300 -0.000000 0.000003 -0.009417 -0.099236 -20.619300 -2.192510 6.469440 -0.000001 176.462000 20.571700 -172.863000 -39.081100 -0.002282 -0.040193 -0.000046 0.004965 33.919800 -40.985400 0.000008 0.000006 0.560612 0.482892 -68.124200 -11.754300 -0.000006 -0.000006 -0.048665 -0.292968 -28.635500
0.000000 0.000000 0.000000 0.000000 0.000000 -0.000000 86.354200 88.638900 181.922000 -82.827600 63.280500 177.168000 15.735700 0.000005 -0.000001 113.786000 83.934700 -114.264000 8.984550 -0.406207 -0.000000 3.365490 4.905200 -1.100460 16.377300 -0.000001 -0.000001 2.119680 10.694900 -1.765360 6.456720 -0.000001 -0.000000 2.070000 13.264200 -4.803450 12.994200 -0.242716 4.980390 -89.491400 -1.174860 -66.588100 5.348090 -0.000007 -0.000001 -76.087900 16.423900 1.342090 24.328600 0.000019 0.000005 1.623460 8.683280 -10.632200 22.291600 -0.000001 0.000005 6.953160 5.341400 -1.122850 12.994500 -0.242716 -4.980390 88.537200 5.948540 -76.157900 -5.348130 -0.000001 -0.000004 -57.342900 27.943500 -27.880100 -24.328900 0.000322 -0.000009 1.850690 4.275900 -23.443200 -22.291500 -0.000108 -0.000004 12.882300 5.412410 -3.345100 -2.192480 -6.469440 -0.000000 171.452000 -15.357800 -25.465500 39.081100 -0.000007 -0.000012 0.123981 -0.298226 22.574200 40.985400 -0.000006 -0.000013 14.168500 -17.222500 -46.887100 11.754300 -0.000000 0.000003 -0.007968 -0.087783 -20.151400 -2.192510 6.469440 -0.000001 174.181000 18.703900 -173.354000 -39.081100 -0.002282 -0.040193 0.044834 -0.050672 39.353700 -40.985400 0.000008 0.000006 0.292589 -0.509391 -63.071700 -11.754300 -0.000006 -0.000006 -0.110810 -0.470620 -36.271200
0.000000 0.000000 0.000000 0.000000 0.000000 -0.000000 89.746400 88.791800 179.441000 -83.810100 61.534000 179.154000 15.735700 0.000005 -0.000001 108.513000 83.985800 -109.278000 8.984550 -0.406207 -0.000000 3.672970 3.841640 -1.652850 16.377300 -0.000001 -0.000001 1.875840 10.402000 -2.136380 6.456720 -0.000001 -0.000000 1.913570 13.343800 -5.126320 12.994200 -0.242716 4.980390 -89.596800 -0.946896 -66.933600 5.348090 -0.000007 -0.000001 -76.591100 19.364800 0.377913 24.328600 0.000019 0.000005 1.739290 8.523090 -11.578400 22.291600 -0.000001 0.000005 5.007420 5.361780 -1.734820 12.994500 -0.242716 -4.980390 88.558100 5.632320 -75.615200 -5.348130 -0.000001 -0.000004 -61.257700 29.619700 -23.603400 -24.328900 0.000322 -0.000009 2.693030 6.417790 -22.830200 -22.291500 -0.000108 -0.000004 12.015700 5.411880 -3.327750 -2.192480 -6.469440 -0.000000 172.188000 -11.551400 -23.716300 39.081100 -0.000007 -0.000012 0.047941 -0.089996 28.044000 40.985400 -0.000006 -0.000013 11.654800 -19.799100 -52.125100 11.754300 -0.000000 0.000003 -0.006607 -0.076261 -19.681000 -2.192510 6.469440 -0.000001 173.001000 18.261500 -175.250000 -39.081100 -0.002282 -0.040193 0.124691 -0.114551 46.670300 -40.985400 0.000008 0.000006 1.484920 -1.529450 -53.200500 -11.754300 -0.000006 -0.000006 -0.192138 -0.631883 -43.598600
0.000000 0.000000 0.000000 0.000000 0.000000 -0.000000 92.723400 88.974600 176.981000 -83.759200 59.318200 -179.352000 15.735700 0.000005 -0.000001 104.159000 83.699100 -104.863000 8.984550 -0.406207 -0.000000 4.477710 3.097510 -1.527430 16.377300 -0.000001 -0.000001 1.910700 9.857220 -2.883210 6.456720 -0.000001 -0.000000 1.748710 13.183300 -6.151540 12.994200 -0.242716 4.980390 -89.459800 -1.304430 -67.501600 5.348090 -0.000007 -0.000001 -77.644100 22.930000 -1.786090 24.328600 0.000019 0.000005 1.935310 8.190920 -13.341900 22.291600 -0.000001 0.000005 4.143940 5.366280 -1.872480 12.994500 -0.242716 -4.980390 88.849700 4.334180 -75.121300 -5.348130 -0.000001 -0.000004 -66.306400 29.862600 -18.581200 -24.328900 0.000322 -0.000009 3.003160 7.452850 -22.028500 -22.291500 -0.000108 -0.000004 11.367000 5.409340 -3.243290 -2.192480 -6.469440 -0.000000 172.470000 -11.113500 -20.666600 39.081100 -0.000007 -0.000012 -0.004963 0.008277 30.951100 40.985400 -0.000006 -0.000013 10.489700 -18.672700 -56.693300 11.754300 -0.000000 0.000003 -0.004477 -0.056321 -18.868100 -2.192510 6.469440 -0.000001 172.929000 16.312200 -178.982000 -39.081100 -0.002282 -0.040193 0.186931 -0.126818 55.381500 -40.985400 0.000008 0.000006 0.330807 -3.553280 -41.680000 -11.754300 -0.000006 -0.000006 -0.107704 -0.463280 -35.948100
0.000000 0.000000 0.000000 0.000000 0.000000 -0.000000 95.092100 88.822500 174.761000 -84.062600 57.475200 -178.407000 15.735700 0.000005 -0.000001 101.299000 83.614900 -101.944000 8.984550 -0.406207 -0.000000 4.774850 2.514110 -1.393670 16.377300 -0.000001 -0.000001 2.100720 9.806350 -3.473440 6.456720 -0.000001 -0.000000 2.001930 13.165400 -7.486020 12.994200 -0.242716 4.980390 -89.494300 -1.230510 -67.654500 5.348090 -0.000007 -0.000001 -77.732700 26.136600 -4.683890 24.328600 0.000019 0.000005 1.942140 6.875280 -15.817400 22.291600 -0.000001 0.000005 3.983170 5.376250 -2.180800 12.994500 -0.242716 -4.980390 89.035400 3.642330 -75.156400 -5.348130 -0.000001 -0.000004 -69.694100 30.292100 -14.087700 -24.328900 0.000322 -0.000009 2.530250 6.692230 -20.774000 -22.291500 -0.000108 -0.000004 10.066500 5.404900 -3.097230 -2.192480 -6.469440 -0.000000 172.203000 -12.075900 -18.886700 39.081100 -0.000007 -0.000012 0.006569 -0.009886 33.600400 40.985400 -0.000006 -0.000013 10.066200 -16.732800 -60.831200 11.754300 -0.000000 0.000003 -0.004054 -0.052009 -18.692400 -2.192510 6.469440 -0.000001 173.763000 13.515600 175.395000 -39.081100 -0.002282 -0.040193 0.149990 -0.072789 63.628300 -40.985400 0.000008 0.000006 2.432630 -4.957600 -33.096900 -11.754300 -0.000006 -0.000006 -0.031602 -0.224715 -25.783100
